<mxfile host="app.diagrams.net" modified="2022-06-27T12:44:58.324Z" agent="5.0 (Windows NT 10.0; Win64; x64) AppleWebKit/537.36 (KHTML, like Gecko) Chrome/102.0.0.0 Safari/537.36" etag="vlnvMh0lhqDuzkGlE6PF" version="20.0.3" type="github">
  <diagram id="MVxN-RxCAj31oxEd8tyH" name="Page-1">
    <mxGraphModel dx="697" dy="546" grid="0" gridSize="10" guides="1" tooltips="1" connect="1" arrows="1" fold="1" page="1" pageScale="1" pageWidth="827" pageHeight="1169" math="0" shadow="0">
      <root>
        <mxCell id="0" />
        <mxCell id="1" parent="0" />
        <mxCell id="QerbIKZHL-n6ob7uPcmJ-1" value="Student" style="swimlane;fontStyle=1;align=center;verticalAlign=top;childLayout=stackLayout;horizontal=1;startSize=26;horizontalStack=0;resizeParent=1;resizeParentMax=0;resizeLast=0;collapsible=1;marginBottom=0;" parent="1" vertex="1">
          <mxGeometry x="120" y="110" width="283" height="173" as="geometry" />
        </mxCell>
        <mxCell id="QerbIKZHL-n6ob7uPcmJ-2" value="+phone_number:string&#xa;# age:int&#xa;-social_Security_Number:string&#xa;-grade:&lt;&lt;etc&gt;&gt;~grade_type&#xa;&lt;&lt;etc&gt;&gt;~grade_type:ENUM" style="text;strokeColor=none;fillColor=none;align=left;verticalAlign=top;spacingLeft=4;spacingRight=4;overflow=hidden;rotatable=0;points=[[0,0.5],[1,0.5]];portConstraint=eastwest;" parent="QerbIKZHL-n6ob7uPcmJ-1" vertex="1">
          <mxGeometry y="26" width="283" height="82" as="geometry" />
        </mxCell>
        <mxCell id="QerbIKZHL-n6ob7uPcmJ-3" value="" style="line;strokeWidth=1;fillColor=none;align=left;verticalAlign=middle;spacingTop=-1;spacingLeft=3;spacingRight=3;rotatable=0;labelPosition=right;points=[];portConstraint=eastwest;" parent="QerbIKZHL-n6ob7uPcmJ-1" vertex="1">
          <mxGeometry y="108" width="283" height="8" as="geometry" />
        </mxCell>
        <mxCell id="QerbIKZHL-n6ob7uPcmJ-4" value="+setPhone(phone:string)&#xa;#setAge(age:int)&#xa;&lt;&lt;etc&gt;&gt;~setGrade(grade:ENUM=one):grade_type" style="text;strokeColor=none;fillColor=none;align=left;verticalAlign=top;spacingLeft=4;spacingRight=4;overflow=hidden;rotatable=0;points=[[0,0.5],[1,0.5]];portConstraint=eastwest;" parent="QerbIKZHL-n6ob7uPcmJ-1" vertex="1">
          <mxGeometry y="116" width="283" height="57" as="geometry" />
        </mxCell>
        <mxCell id="QerbIKZHL-n6ob7uPcmJ-5" value="Student" style="swimlane;fontStyle=1;align=center;verticalAlign=top;childLayout=stackLayout;horizontal=1;startSize=26;horizontalStack=0;resizeParent=1;resizeParentMax=0;resizeLast=0;collapsible=1;marginBottom=0;" parent="1" vertex="1">
          <mxGeometry x="123" y="331" width="160" height="86" as="geometry" />
        </mxCell>
        <mxCell id="QerbIKZHL-n6ob7uPcmJ-6" value="+ 속성" style="text;strokeColor=none;fillColor=none;align=left;verticalAlign=top;spacingLeft=4;spacingRight=4;overflow=hidden;rotatable=0;points=[[0,0.5],[1,0.5]];portConstraint=eastwest;" parent="QerbIKZHL-n6ob7uPcmJ-5" vertex="1">
          <mxGeometry y="26" width="160" height="26" as="geometry" />
        </mxCell>
        <mxCell id="QerbIKZHL-n6ob7uPcmJ-7" value="" style="line;strokeWidth=1;fillColor=none;align=left;verticalAlign=middle;spacingTop=-1;spacingLeft=3;spacingRight=3;rotatable=0;labelPosition=right;points=[];portConstraint=eastwest;" parent="QerbIKZHL-n6ob7uPcmJ-5" vertex="1">
          <mxGeometry y="52" width="160" height="8" as="geometry" />
        </mxCell>
        <mxCell id="QerbIKZHL-n6ob7uPcmJ-8" value="+ 메소드" style="text;strokeColor=none;fillColor=none;align=left;verticalAlign=top;spacingLeft=4;spacingRight=4;overflow=hidden;rotatable=0;points=[[0,0.5],[1,0.5]];portConstraint=eastwest;" parent="QerbIKZHL-n6ob7uPcmJ-5" vertex="1">
          <mxGeometry y="60" width="160" height="26" as="geometry" />
        </mxCell>
        <mxCell id="QerbIKZHL-n6ob7uPcmJ-9" value="&lt;&lt;interface&gt;&gt;&#xa;InterfaceName" style="swimlane;fontStyle=1;align=center;verticalAlign=top;childLayout=stackLayout;horizontal=1;startSize=42;horizontalStack=0;resizeParent=1;resizeParentMax=0;resizeLast=0;collapsible=1;marginBottom=0;" parent="1" vertex="1">
          <mxGeometry x="328" y="361" width="213" height="99" as="geometry">
            <mxRectangle x="329" y="323" width="118" height="41" as="alternateBounds" />
          </mxGeometry>
        </mxCell>
        <mxCell id="QerbIKZHL-n6ob7uPcmJ-10" value="+Test:string =&quot;TEST&quot;{readOnly}" style="text;strokeColor=none;fillColor=none;align=left;verticalAlign=top;spacingLeft=4;spacingRight=4;overflow=hidden;rotatable=0;points=[[0,0.5],[1,0.5]];portConstraint=eastwest;" parent="QerbIKZHL-n6ob7uPcmJ-9" vertex="1">
          <mxGeometry y="42" width="213" height="23" as="geometry" />
        </mxCell>
        <mxCell id="QerbIKZHL-n6ob7uPcmJ-11" value="" style="line;strokeWidth=1;fillColor=none;align=left;verticalAlign=middle;spacingTop=-1;spacingLeft=3;spacingRight=3;rotatable=0;labelPosition=right;points=[];portConstraint=eastwest;" parent="QerbIKZHL-n6ob7uPcmJ-9" vertex="1">
          <mxGeometry y="65" width="213" height="8" as="geometry" />
        </mxCell>
        <mxCell id="QerbIKZHL-n6ob7uPcmJ-12" value="+getTest():string throw Exception" style="text;strokeColor=none;fillColor=none;align=left;verticalAlign=top;spacingLeft=4;spacingRight=4;overflow=hidden;rotatable=0;points=[[0,0.5],[1,0.5]];portConstraint=eastwest;" parent="QerbIKZHL-n6ob7uPcmJ-9" vertex="1">
          <mxGeometry y="73" width="213" height="26" as="geometry" />
        </mxCell>
        <mxCell id="UuqjQWFN8lm67cm7q7Hm-1" value="package" style="shape=folder;fontStyle=1;spacingTop=10;tabWidth=40;tabHeight=14;tabPosition=left;html=1;" vertex="1" parent="1">
          <mxGeometry x="91" y="546" width="70" height="50" as="geometry" />
        </mxCell>
      </root>
    </mxGraphModel>
  </diagram>
</mxfile>
